<svg xmlns="http://www.w3.org/2000/svg" viewBox="0 0 533.89 150"><defs><style>.cls-1{fill:#6564ad;}.cls-2{fill:#f6a14c;}.cls-3{fill:#34b6b9;}.cls-4{fill:#40484d;}</style></defs><title>Asset 1</title><g id="Layer_2" data-name="Layer 2"><g id="Layer_1-2" data-name="Layer 1"><circle class="cls-1" cx="76.36" cy="73.64" r="7.48"/><circle class="cls-2" cx="52.37" cy="73.64" r="7.48"/><circle class="cls-3" cx="100.18" cy="73.64" r="7.48"/><path class="cls-4" d="M76.67,0a73.64,73.64,0,1,0,73.64,73.64A73.64,73.64,0,0,0,76.67,0Zm-.46,127.65a54,54,0,1,1,54-54A54,54,0,0,1,76.21,127.65Z"/><path class="cls-4" d="M0,101.4V150H48.09A81.75,81.75,0,0,1,0,101.4Z"/><path class="cls-4" d="M202.18,40.48H196.8v21.8H186.2V2.43h23.45c13.38,0,19,9.64,19,19.2,0,8.51-4.43,16.59-14.85,18.5l15.63,22.15H217Zm-5.38-8.95h10.68c7.47,0,10.6-4.26,10.6-9.73s-3.39-9.9-9.21-9.9H196.8Z"/><path class="cls-4" d="M274.44,45.51H243.09c1.13,5.65,5.47,8.52,11.46,8.52a13.52,13.52,0,0,0,11-5l6.68,5.12c-3.73,5.91-10.85,9-18.24,9-12.16,0-21.36-8.51-21.36-21.19,0-12.94,9.72-21.1,21.28-21.1s20.76,8.07,20.76,20.76A32.65,32.65,0,0,1,274.44,45.51Zm-9.81-7c-.61-5.56-4.86-8.78-10.51-8.78-5.47,0-9.82,2.61-11,8.78Z"/><path class="cls-4" d="M346.19,39.52V62.28h-10v-22c0-6.51-3.39-9.73-8.08-9.73-5.82,0-9.47,4.35-9,11.64l-.09-.34V62.28H308.92v-22c0-6.51-3.38-9.73-7.73-9.73-4.69,0-9.38,2.61-9.38,10.34V62.28H281.74V21.71h10.07v7c1.48-5.12,7-7.81,12.08-7.81,5.9,0,10.77,2.78,13.11,8,3.22-6.43,9.56-8,13.64-8C340.8,20.85,346.19,27.71,346.19,39.52Z"/><path class="cls-4" d="M353.05,41.87c0-12.86,10-21,21.54-21s21.62,8.16,21.62,21-10.07,21.27-21.62,21.27S353.05,54.72,353.05,41.87Zm33,0a11.42,11.42,0,1,0-22.84,0c0,7.12,5.12,11.89,11.38,11.89S386.05,49,386.05,41.87Z"/><path class="cls-4" d="M425.05,29.79h-8.6V62.28H406.38V29.79h-7.3V21.71h7.3V6.77h10.07V21.71h8.6Z"/><path class="cls-4" d="M469.09,45.51H437.73c1.13,5.65,5.48,8.52,11.47,8.52,4.43,0,8.6-1.74,11-5l6.69,5.12c-3.74,5.91-10.86,9-18.24,9-12.16,0-21.37-8.51-21.37-21.19,0-12.94,9.73-21.1,21.28-21.1s20.76,8.07,20.76,20.76A34.66,34.66,0,0,1,469.09,45.51Zm-9.82-7c-.6-5.56-4.86-8.78-10.5-8.78-5.48,0-9.82,2.61-11,8.78Z"/><path class="cls-4" d="M476.39,0h10.07V62.28H476.39Z"/><path class="cls-4" d="M533.89,21.71,508.7,82.08H498.1l9.12-22.58L491.06,21.71h11L512.6,47.42,523,21.71Z"/><path class="cls-4" d="M182.38,119.25A30.4,30.4,0,1,1,212.78,150,30.33,30.33,0,0,1,182.38,119.25Zm50.2,0c0-11.46-8.43-20.76-19.89-20.76s-19.63,9.3-19.63,20.76S201.31,140,212.69,140,232.58,130.72,232.58,119.25Z"/><path class="cls-4" d="M289.56,126.37v22.76H279.48v-21.8c0-6.43-3.91-9.73-8.42-9.73s-10.34,2.52-10.34,10.34v21.19H250.64V108.57h10.08V115c2.08-5,8.42-7.3,12.59-7.3C283.74,107.7,289.56,114.56,289.56,126.37Z"/><path class="cls-4" d="M338.1,132.37H306.75c1.13,5.64,5.47,8.51,11.47,8.51a13.51,13.51,0,0,0,11-5l6.68,5.13c-3.73,5.9-10.85,9-18.24,9-12.16,0-21.36-8.51-21.36-21.19,0-12.94,9.73-21.11,21.28-21.11s20.76,8.08,20.76,20.76A32.81,32.81,0,0,1,338.1,132.37Zm-9.81-7c-.61-5.56-4.86-8.77-10.51-8.77-5.47,0-9.81,2.61-11,8.77Z"/></g></g></svg>